<?xml version="1.0" encoding="UTF-8"?>
<svg id="Layer_1" data-name="Layer 1" xmlns="http://www.w3.org/2000/svg" viewBox="0 0 40 40">
  <path d="m39.49,8.88c-.07.44-.27.9-.4,1.33-.15.49-.29.97-.43,1.46-1.24,4.32-2.47,8.65-3.71,12.97-.23.81-.58,1.07-1.43,1.07-6.71,0-13.43,0-20.14,0-.91,0-1.44.42-1.44,1.14,0,.72.53,1.14,1.44,1.14,6.7,0,13.4,0,20.1,0,.91,0,1.44.42,1.44,1.14,0,.72-.53,1.14-1.45,1.14-.48,0-.96,0-1.54,0,2.14.56,3.2,2.05,2.93,4.01-.22,1.57-1.74,2.85-3.38,2.84-1.78-.01-3.2-1.32-3.38-3.17-.15-1.51.8-3.21,2.94-3.67h-15.14c.93.21,1.71.67,2.25,1.45.55.79.72,1.66.56,2.61-.26,1.57-1.83,2.84-3.44,2.77-1.83-.07-3.2-1.42-3.34-3.26-.13-1.66,1.11-3.18,2.87-3.58-.55,0-1.09,0-1.64,0-1.62-.02-2.91-.95-3.36-2.42-.48-1.56.19-3.21,1.62-4,.09-.05.17-.1.28-.16-1.37-6.18-2.74-12.35-4.12-18.55-.53,0-1.05,0-1.57,0-1.43,0-2.87,0-4.3,0-.87,0-1.43-.79-1.12-1.56.19-.45.54-.71,1.03-.72,2.28-.01,4.57-.01,6.85,0,.64,0,1.02.37,1.17,1.04.26,1.16.52,2.32.79,3.52h.49c9.01,0,18.02,0,27.03-.01.71,0,1.23.19,1.53.85,0,.19.03.41,0,.6,0,0,0,0,0,.01Zm-2.66.86H10.94c1.02,4.58,2.03,9.12,3.04,13.66h18.94c1.3-4.56,2.6-9.1,3.9-13.66Zm-21.47,25.1c.62,0,1.14-.52,1.13-1.14,0-.62-.52-1.14-1.14-1.13-.62,0-1.14.52-1.13,1.14,0,.62.52,1.14,1.14,1.13Zm17.28-1.15c0-.62-.53-1.14-1.15-1.13-.62,0-1.14.53-1.13,1.15,0,.62.53,1.14,1.15,1.13.62,0,1.14-.53,1.13-1.15Z"/>
</svg>