<?xml version="1.0" encoding="UTF-8"?>
<svg id="Layer_1" data-name="Layer 1" xmlns="http://www.w3.org/2000/svg" viewBox="0 0 40 40">
  <path d="m.5,20.1c.09-.99.06-2,.29-2.95.57-2.37,2.62-4,5.06-4.15.27-.02.41-.1.53-.35,2.42-4.89,6.3-7.82,11.72-8.58,6.48-.91,12.81,2.6,15.57,8.54.13.28.27.38.58.4,2.92.17,5.21,2.56,5.24,5.48.01,1.32.05,2.65-.08,3.96-.3,3.04-3.28,5.26-6.3,4.79-.31-.05-.49.02-.67.29-2.37,3.38-5.59,5.46-9.63,6.27-.24.05-.35.14-.45.36-.66,1.43-2.17,2.18-3.69,1.84-1.48-.33-2.56-1.7-2.54-3.22.02-1.56,1.14-2.87,2.69-3.17,1.32-.25,2.7.38,3.39,1.6.14.24.27.29.53.23,5.27-1.15,9.25-5.5,9.91-10.81.82-6.62-3.56-12.73-10.09-14.08-7.07-1.46-14.07,3.44-15.1,10.58-.4,2.78.06,5.41,1.36,7.89.5.94.22,1.63-.79,1.99-3.64,1.27-7.46-1.45-7.45-5.31,0-.52,0-1.05,0-1.57-.03,0-.06,0-.08,0Zm33.4,4.82c1.48.08,2.98-1.11,3.15-2.61.13-1.2.07-2.42.09-3.64,0-.26-.03-.52-.08-.78-.23-1.19-1.29-2.27-2.36-2.41.75,3.22.47,6.35-.79,9.43ZM5.39,15.45c-1.46.4-2.42,1.62-2.45,3.07-.02,1.08-.01,2.17,0,3.25.02,1.44,1.02,2.7,2.41,3.07.25.07.51.08.83.13-1.29-3.13-1.55-6.26-.8-9.51Zm14,16.46c-.5,0-.89.4-.9.89,0,.49.43.93.92.92.51,0,.9-.43.89-.94-.01-.5-.41-.87-.91-.87Z"/>
  <path d="m19.8,9.12c5.33,0,9.63,3.94,10.05,9,.45,5.25-3.19,9.86-8.41,10.65-1.2.18-2.4.13-3.58-.15-.27-.06-.47-.02-.7.11-1.19.7-2.39,1.4-3.59,2.08-.8.46-1.7.04-1.81-.84-.03-.21.03-.44.08-.65.29-1.1.58-2.19.89-3.29.06-.22.02-.38-.13-.56-2.43-2.95-3.13-6.28-1.8-9.87,1.33-3.6,4.01-5.7,7.8-6.36.47-.08.96-.1,1.21-.12Zm-5,18.25c.61-.35,1.14-.62,1.64-.95.5-.33.99-.38,1.56-.2,1.06.33,2.16.38,3.26.19,3.45-.61,5.92-3.29,6.26-6.79.48-4.94-4.19-9.07-9.03-7.96-2.86.65-4.8,2.41-5.63,5.21-.85,2.86-.14,5.39,1.96,7.52.42.43.57.88.4,1.46-.14.47-.25.95-.4,1.53Z"/>
  <path d="m16.13,20.16c-.65,0-1.18-.49-1.19-1.14-.01-.65.53-1.21,1.18-1.21.63,0,1.17.54,1.17,1.17,0,.65-.51,1.17-1.16,1.17Z"/>
  <path d="m23.93,20.16c-.64-.01-1.15-.54-1.14-1.19.01-.63.56-1.16,1.19-1.16.65,0,1.19.57,1.16,1.22-.02.65-.55,1.14-1.21,1.13Z"/>
  <path d="m20.03,20.16c-.65,0-1.17-.52-1.17-1.16,0-.65.55-1.2,1.2-1.18.63.01,1.16.56,1.15,1.19,0,.65-.53,1.15-1.18,1.15Z"/>
</svg>