<?xml version="1.0" encoding="UTF-8"?>
<svg id="Layer_1" data-name="Layer 1" xmlns="http://www.w3.org/2000/svg" viewBox="0 0 40 40">
  <path d="m.5,39.59c.8-2.91,1.53-5.75,2.37-8.56.29-.98.23-1.77-.23-2.71C-1.94,18.94,1.71,7.67,10.87,2.74c10.77-5.81,24.21-.28,27.78,11.42,3.12,10.21-2.63,21.09-12.82,24.23-5.07,1.56-9.99,1.07-14.73-1.31-.18-.09-.45-.12-.64-.07-3.17.82-6.34,1.65-9.5,2.48-.13.03-.26.06-.45.1Zm4.66-4.59c1.9-.5,3.73-.97,5.55-1.47.4-.11.7-.06,1.06.15,3.58,2.12,7.43,2.82,11.5,1.99,8.64-1.77,14.18-9.93,12.7-18.62-1.25-7.37-7.63-13.02-15.07-13.33-4.12-.17-7.82,1.01-11.01,3.63-3.64,3-5.63,6.9-5.92,11.61-.21,3.48.67,6.71,2.55,9.65.19.29.25.55.15.9-.51,1.8-.99,3.61-1.51,5.49Z"/>
  <path d="m13.77,10.9c.88-.23,1.28.31,1.57,1.08.43,1.12.9,2.22,1.37,3.31.17.4.17.76-.1,1.11-.39.51-.75,1.03-1.16,1.53-.26.32-.29.61-.08.96,1.59,2.68,3.81,4.61,6.7,5.77.38.15.69.09.94-.23.49-.6.98-1.2,1.46-1.81.34-.42.54-.54,1.01-.32,1.38.63,2.75,1.29,4.11,1.97.16.08.31.39.3.6-.04,2.06-.64,3.05-2.86,3.98-1.25.52-2.55.39-3.84.03-4.66-1.3-8.1-4.24-10.86-8.1-.87-1.21-1.65-2.47-1.98-3.94-.47-2.1.05-3.93,1.6-5.44.49-.48,1.08-.59,1.78-.5Z"/>
</svg>