<?xml version="1.0" encoding="UTF-8"?>
<svg id="Layer_1" data-name="Layer 1" xmlns="http://www.w3.org/2000/svg" viewBox="0 0 40 40">
  <path d="m20.02,7.79c.46-.5.82-.92,1.21-1.31,3.07-2.97,6.7-3.95,10.76-2.69,4.07,1.26,6.55,4.14,7.31,8.33.64,3.54-.34,6.71-2.89,9.25-4.96,4.95-10,9.82-15.01,14.72-.88.87-1.89.86-2.78-.01-4.98-4.87-10.01-9.7-14.92-14.64C.59,18.32-.28,14.48,1.21,10.34,2.69,6.22,5.78,3.85,10.14,3.35c3.22-.37,6.06.65,8.42,2.9.47.45.9.95,1.46,1.54Zm-.02,24.53c.1-.07.16-.11.22-.17,4.56-4.47,9.14-8.93,13.68-13.43,1.23-1.21,1.85-2.75,1.91-4.48.11-2.97-1.52-5.57-4.16-6.74-2.63-1.16-5.66-.58-7.78,1.5-.82.8-1.62,1.63-2.44,2.43-.9.88-1.93.88-2.82,0-.89-.88-1.74-1.78-2.65-2.63-2.81-2.62-7.16-2.47-9.83.31-2.61,2.72-2.54,7.12.18,9.79,3.44,3.38,6.89,6.76,10.34,10.14,1.11,1.09,2.23,2.18,3.35,3.28Z"/>
</svg>